<?xml version="1.0" encoding="iso-8859-1"?>
<!-- Generator: Adobe Illustrator 19.0.0, SVG Export Plug-In . SVG Version: 6.00 Build 0)  -->
<svg xmlns="http://www.w3.org/2000/svg" xmlns:xlink="http://www.w3.org/1999/xlink" version="1.1" id="Layer_1" x="0px" y="0px" viewBox="0 0 512.003 512.003" style="enable-background:new 0 0 512.003 512.003;" xml:space="preserve" width="512px" height="512px">
<g>
	<g>
		<path d="M492.638,416.098c-35.448-29.658-139.707-117.145-187.508-159.807c25.893-23.74,62.124-59.049,97.362-93.399    c40.344-39.32,78.458-76.473,95.74-91.067c8.75-7.401,13.771-18.263,13.771-29.793c0-14.448-7.51-27.26-20.094-34.265    c-12.521-6.963-27.26-6.619-39.438,0.949c-39.313,24.403-196.469,137.351-196.469,161.702c0,7.185-0.293,15.633-2.85,25.22    c-11.75-20.167-18.483-38.642-18.483-46.569c0-15.188-51.573-64.662-153.292-147.066C77.159-1.417,70.076-0.187,66.211,3.67    c-4.167,4.17-4.167,10.925,0,15.094l101.333,101.408c4.156,4.159,4.156,10.935,0,15.094c-4.042,4.024-11.042,4.024-15.083,0    L51.128,33.859c-4.167-4.17-10.917-4.17-15.083,0l-1.833,1.835c-4.167,4.17-4.167,10.925,0,15.094l101.333,101.408    c4.156,4.159,4.156,10.935,0,15.094c-4.042,4.024-11.042,4.024-15.083,0L19.128,65.883c-4.146-4.149-11.813-3.242-16,0.917    c-3.865,3.857-4.188,10.018-0.75,14.26c82.344,101.793,131.781,153.404,146.958,153.404c9.056,0,31.823,8.767,55.227,23.869    C157.266,300.405,60.87,381.371,19.388,416.077c-12.323,10.31-19.385,25.477-19.385,41.614c0,29.949,24.344,54.311,54.271,54.311    c16.115,0,31.281-7.078,41.583-19.42c35.645-42.645,119.006-142.038,160.151-188.132    c42.456,47.588,130.417,152.568,160.172,188.173c10.292,12.322,25.448,19.379,41.552,19.379c29.927,0,54.271-24.362,54.271-54.311    C512.003,441.554,504.941,426.397,492.638,416.098z" fill="#FFFFFF"/>
	</g>
</g>
<g>
</g>
<g>
</g>
<g>
</g>
<g>
</g>
<g>
</g>
<g>
</g>
<g>
</g>
<g>
</g>
<g>
</g>
<g>
</g>
<g>
</g>
<g>
</g>
<g>
</g>
<g>
</g>
<g>
</g>
</svg>
