<?xml version="1.0" encoding="iso-8859-1"?>
<!-- Generator: Adobe Illustrator 17.1.0, SVG Export Plug-In . SVG Version: 6.00 Build 0)  -->
<!DOCTYPE svg PUBLIC "-//W3C//DTD SVG 1.1//EN" "http://www.w3.org/Graphics/SVG/1.1/DTD/svg11.dtd">
<svg xmlns="http://www.w3.org/2000/svg" xmlns:xlink="http://www.w3.org/1999/xlink" version="1.1" id="Capa_1" x="0px" y="0px" viewBox="0 0 368.875 368.875" style="enable-background:new 0 0 368.875 368.875;" xml:space="preserve" width="512px" height="512px">
<path d="M251.939,81.033c-25.123,0-48.421,7.966-67.502,21.502c-9.362-6.641-19.742-11.936-30.852-15.612  c0.229-1.452,0.35-2.938,0.35-4.453c0-15.715-12.785-28.5-28.5-28.5h-17c-15.715,0-28.5,12.785-28.5,28.5  c0,1.515,0.121,3.002,0.35,4.453C33.705,102.335,0,146.287,0,197.969c0,64.479,52.457,116.937,116.936,116.937  c25.123,0,48.421-7.966,67.502-21.502c19.081,13.536,42.379,21.502,67.502,21.502c64.479,0,116.936-52.458,116.936-116.937  S316.418,81.033,251.939,81.033z M184.438,252.688c-12.144-14.953-19.435-33.999-19.435-54.719c0-20.719,7.29-39.766,19.435-54.718  c12.144,14.953,19.435,33.999,19.435,54.718C203.872,218.689,196.582,237.735,184.438,252.688z M30,197.969  c0-47.937,38.999-86.936,86.936-86.936c16.41,0,31.771,4.572,44.88,12.506c-16.741,20.235-26.813,46.178-26.813,74.43  c0,28.252,10.072,54.196,26.813,74.43c-13.109,7.934-28.471,12.506-44.88,12.506C68.999,284.906,30,245.906,30,197.969z   M251.939,284.906c-16.41,0-31.771-4.572-44.88-12.506c16.741-20.235,26.813-46.178,26.813-74.43  c0-28.252-10.072-54.195-26.813-74.43c13.109-7.934,28.47-12.506,44.88-12.506c47.937,0,86.936,39,86.936,86.936  C338.875,245.906,299.876,284.906,251.939,284.906z" fill="#8c9dad"/>
<g>
</g>
<g>
</g>
<g>
</g>
<g>
</g>
<g>
</g>
<g>
</g>
<g>
</g>
<g>
</g>
<g>
</g>
<g>
</g>
<g>
</g>
<g>
</g>
<g>
</g>
<g>
</g>
<g>
</g>
</svg>
